<?xml version="1.0" encoding="utf-8"?>
<!-- Generator: Adobe Illustrator 23.0.3, SVG Export Plug-In . SVG Version: 6.00 Build 0)  -->
<svg version="1.1" id="f1c02500-d0b1-4e3e-8be2-0fff80bc1a76"
	 xmlns="http://www.w3.org/2000/svg" xmlns:xlink="http://www.w3.org/1999/xlink" x="0px" y="0px" viewBox="0 0 100 100"
	 style="enable-background:new 0 0 100 100;" xml:space="preserve">
<style type="text/css">
	.st0{fill:#93BA1F;}
	.st1{fill:#E6C20F;}
	.st2{fill:#004B84;}
</style>
<g>
	<path class="st2" d="M53.7,4.7c-15.5,0-28.1,12.6-28.1,28.1c0,4.5,1.1,9,3.2,13l23.9,49.8c0.2,0.4,0.6,0.7,1,0.7s0.8-0.3,1-0.7
		l24.4-50.8c1.8-3.7,2.6-7.8,2.6-11.9C81.8,17.3,69.2,4.7,53.7,4.7z"/>
</g>
<g>
	<path class="st0" d="M53.7,4.8c-15.5,0-28.1,12.6-28.1,28.1c0,4.5,1.1,9,3.2,13l23.9,49.8c0.2,0.4,0.6,0.7,1,0.7s0.8-0.3,1-0.7
		l24.4-50.8c1.8-3.7,2.6-7.8,2.6-11.9C81.8,17.4,69.2,4.8,53.7,4.8z M77.1,43.8L53.7,92.5L30.8,44.8c-1.9-3.6-2.9-7.7-2.9-11.9
		c0-14.2,11.6-25.8,25.8-25.8c14.2,0,25.8,11.6,25.8,25.8C79.5,36.7,78.7,40.4,77.1,43.8z"/>
</g>
<circle class="st1" cx="53.9" cy="34.7" r="19.2"/>
</svg>
